<?xml version="1.0" encoding="iso-8859-1"?>
<!-- Uploaded to: SVG Repo, www.svgrepo.com, Transformed by: SVG Repo Mixer Tools -->
<svg height="800px" width="800px" version="1.1" id="Layer_1" xmlns="http://www.w3.org/2000/svg" xmlns:xlink="http://www.w3.org/1999/xlink" 
	 viewBox="0 0 512 512" xml:space="preserve">
<path style="fill:#B28964;" d="M108.127,184.779V42.777c0-9.297,7.537-16.833,16.833-16.833h50.756
	c9.297,0,16.833,7.537,16.833,16.833v87.001c0,4.231-1.594,8.307-4.463,11.416l-50.755,55.001
	C126.974,207.419,108.127,200.107,108.127,184.779z"/>
<path style="fill:#FDBF00;" d="M410.354,486.056H101.645c-9.297,0-16.833-7.537-16.833-16.833V220.355
	c-3.432-6.267-2.545-14.131,2.4-19.49L243.629,31.362c6.66-7.217,18.076-7.223,24.742,0l156.417,169.503
	c4.95,5.364,5.829,13.23,2.4,19.49v248.868C427.187,478.519,419.65,486.056,410.354,486.056z"/>
<path style="fill:#FF9800;" d="M424.788,200.864L268.371,31.361c-3.332-3.61-7.852-5.415-12.37-5.415v460.111h154.354
	c9.297,0,16.833-7.537,16.833-16.833V220.355C430.615,214.094,429.737,206.228,424.788,200.864z"/>
<path style="fill:#FF7A53;" d="M482.796,313.368L255.999,67.598L29.204,313.368c-6.304,6.832-16.952,7.261-23.787,0.955
	c-6.832-6.305-7.26-16.955-0.955-23.787L243.629,31.362c6.66-7.217,18.076-7.223,24.742,0l239.167,259.175
	c6.305,6.832,5.877,17.482-0.955,23.787C499.752,320.626,489.103,320.203,482.796,313.368z"/>
<path style="fill:#B28964;" d="M340.521,486.056H171.479V333.848c0-9.297,7.537-16.833,16.833-16.833h135.375
	c9.297,0,16.833,7.537,16.833,16.833V486.056z"/>
<path style="fill:#2586FD;" d="M301.357,246.951h-90.716c-9.297,0-16.833-7.537-16.833-16.833c0-9.297,7.537-16.833,16.833-16.833
	h90.716c9.297,0,16.833,7.537,16.833,16.833C318.191,239.415,310.654,246.951,301.357,246.951z"/>
<path style="fill:#FF0536;" d="M507.537,290.536L268.371,31.361c-3.332-3.61-7.852-5.415-12.37-5.415v41.653l226.796,245.769
	c6.307,6.834,16.957,7.257,23.787,0.955C513.414,308.018,513.842,297.369,507.537,290.536z"/>
<path style="fill:#896746;" d="M340.521,333.848c0-9.297-7.537-16.833-16.833-16.833H256v169.042h84.52V333.848z"/>
<path style="fill:#3A4DE2;" d="M301.357,213.285h-45.358v33.667h45.358c9.297,0,16.833-7.537,16.833-16.833
	C318.191,220.822,310.654,213.285,301.357,213.285z"/>
</svg>